<svg width="500" height="350" viewBox="0 0 500 350" fill="none" xmlns="http://www.w3.org/2000/svg">
<g filter="url(#filter0_d_31_18)">
<rect x="75" y="38" width="350" height="200" rx="17.8834" fill="#16194F"/>
</g>
<mask id="mask0_31_18" style="mask-type:alpha" maskUnits="userSpaceOnUse" x="75" y="38" width="350" height="200">
<rect x="75" y="38" width="350" height="200" rx="17.8834" fill="#16194F"/>
</mask>
<g mask="url(#mask0_31_18)">
<path d="M346.822 3.88095C361.651 -12.884 387.809 -12.884 402.637 3.88097L415.13 18.0051C422.081 25.8647 432.025 30.4286 442.516 30.5752L460.759 30.8303C484.47 31.1617 501.842 53.2665 496.559 76.3838L494.135 86.9911C491.549 98.3091 494.386 110.186 501.809 119.113L508.513 127.174C524.142 145.969 517.742 174.468 495.578 184.777L483.071 190.594C473.014 195.272 465.565 204.187 462.748 214.915L459.033 229.064C453.245 251.109 429.195 262.837 408.261 253.821L389.467 245.727C380.06 241.676 369.4 241.676 359.993 245.727L341.199 253.821C320.265 262.837 296.215 251.109 290.427 229.064L286.712 214.915C283.895 204.187 276.445 195.272 266.388 190.594L253.881 184.777C231.717 174.468 225.318 145.969 240.947 127.174L247.65 119.113C255.073 110.186 257.911 98.3091 255.324 86.9911L252.9 76.3838C247.618 53.2665 264.989 31.1617 288.7 30.8303L306.943 30.5752C317.435 30.4286 327.379 25.8647 334.33 18.0051L346.822 3.88095Z" fill="#9A94FF"/>
<path d="M146.516 -65.6406C161.383 -82.9579 188.185 -82.9578 203.052 -65.6406L210.222 -57.2892C217.178 -49.1869 227.277 -44.4589 237.954 -44.3051L248.426 -44.1543C272.033 -43.8143 289.375 -21.8822 284.262 1.16717L282.878 7.40664C280.424 18.473 283.14 30.0551 290.26 38.8756L294.074 43.6012C309.175 62.31 302.865 90.2114 281.182 100.601L274.057 104.015C264.105 108.784 256.779 117.719 254.054 128.413L251.931 136.741C246.235 159.093 221.803 170.951 200.718 161.596L189.894 156.793C180.273 152.525 169.295 152.525 159.674 156.793L148.85 161.596C127.765 170.951 103.333 159.093 97.6369 136.741L95.5144 128.413C92.7891 117.719 85.463 108.784 75.5108 104.015L68.3857 100.601C46.7033 90.2114 40.3927 62.31 55.4938 43.6011L59.3081 38.8756C66.4277 30.0551 69.1445 18.473 66.6897 7.40664L65.3057 1.16719C60.1928 -21.8822 77.5349 -43.8143 101.142 -44.1543L111.614 -44.3051C122.292 -44.4589 132.39 -49.1869 139.346 -57.2892L146.516 -65.6406Z" fill="#CAC7FF"/>
<path d="M171.462 108.24C186.329 90.9228 213.131 90.9228 227.998 108.24L235.168 116.591C242.124 124.694 252.222 129.422 262.9 129.576L273.372 129.726C296.979 130.066 314.321 151.998 309.208 175.048L307.824 181.287C305.369 192.354 308.086 203.936 315.206 212.756L319.02 217.482C334.121 236.191 327.811 264.092 306.128 274.481L299.003 277.896C289.051 282.664 281.725 291.6 278.999 302.294L276.877 310.622C271.181 332.974 246.748 344.831 225.664 335.477L214.84 330.674C205.219 326.405 194.241 326.405 184.62 330.674L173.795 335.477C152.711 344.831 128.279 332.974 122.583 310.622L120.46 302.294C117.735 291.6 110.409 282.664 100.457 277.896L93.3315 274.481C71.6491 264.092 65.3385 236.191 80.4396 217.482L84.2539 212.756C91.3735 203.936 94.0903 192.354 91.6355 181.287L90.2515 175.048C85.1386 151.998 102.481 130.066 126.088 129.726L136.56 129.576C147.237 129.422 157.336 124.694 164.292 116.591L171.462 108.24Z" fill="#16194F"/>
<mask id="mask1_31_18" style="mask-type:alpha" maskUnits="userSpaceOnUse" x="47" y="-79" width="256" height="244">
<path d="M146.516 -65.6406C161.383 -82.9579 188.185 -82.9578 203.052 -65.6406L210.222 -57.2892C217.178 -49.1869 227.277 -44.4589 237.954 -44.3051L248.426 -44.1543C272.033 -43.8143 289.375 -21.8822 284.262 1.16717L282.878 7.40664C280.424 18.473 283.14 30.0551 290.26 38.8756L294.074 43.6012C309.175 62.31 302.865 90.2114 281.182 100.601L274.057 104.015C264.105 108.784 256.779 117.719 254.054 128.413L251.931 136.741C246.235 159.093 221.803 170.951 200.718 161.596L189.894 156.793C180.273 152.525 169.295 152.525 159.674 156.793L148.85 161.596C127.765 170.951 103.333 159.093 97.6369 136.741L95.5144 128.413C92.7891 117.719 85.463 108.784 75.5108 104.015L68.3857 100.601C46.7033 90.2114 40.3927 62.31 55.4938 43.6011L59.3081 38.8756C66.4277 30.0551 69.1445 18.473 66.6897 7.40664L65.3057 1.16719C60.1928 -21.8822 77.5349 -43.8143 101.142 -44.1543L111.614 -44.3051C122.292 -44.4589 132.39 -49.1869 139.346 -57.2892L146.516 -65.6406Z" fill="#CAC7FF"/>
</mask>
<g mask="url(#mask1_31_18)">
<path d="M171.462 108.24C186.329 90.9228 213.131 90.9228 227.998 108.24L235.168 116.591C242.124 124.694 252.222 129.422 262.9 129.576L273.372 129.726C296.979 130.066 314.321 151.998 309.208 175.048L307.824 181.287C305.369 192.354 308.086 203.936 315.206 212.756L319.02 217.482C334.121 236.191 327.811 264.092 306.128 274.481L299.003 277.896C289.051 282.664 281.725 291.6 278.999 302.294L276.877 310.622C271.181 332.974 246.748 344.831 225.664 335.477L214.84 330.674C205.219 326.405 194.241 326.405 184.62 330.674L173.795 335.477C152.711 344.831 128.279 332.974 122.583 310.622L120.46 302.294C117.735 291.6 110.409 282.664 100.457 277.896L93.3315 274.481C71.6491 264.092 65.3385 236.191 80.4396 217.482L84.2539 212.756C91.3735 203.936 94.0903 192.354 91.6355 181.287L90.2515 175.048C85.1386 151.998 102.481 130.066 126.088 129.726L136.56 129.576C147.237 129.422 157.336 124.694 164.292 116.591L171.462 108.24Z" fill="#F44E77"/>
</g>
</g>
<path d="M106.162 83.7688C106.162 83.274 105.987 82.8956 105.638 82.6336C105.289 82.3659 104.66 82.0864 103.752 81.7954C102.844 81.4985 102.125 81.2074 101.595 80.9222C100.151 80.1421 99.4295 79.0913 99.4295 77.7699C99.4295 77.0829 99.6216 76.4717 100.006 75.9361C100.396 75.3947 100.952 74.9727 101.674 74.67C102.401 74.3672 103.216 74.2159 104.119 74.2159C105.027 74.2159 105.836 74.3818 106.546 74.7136C107.256 75.0396 107.807 75.5024 108.197 76.102C108.592 76.7016 108.79 77.3827 108.79 78.1453H106.171C106.171 77.5632 105.987 77.112 105.621 76.7919C105.254 76.4659 104.739 76.3029 104.075 76.3029C103.435 76.3029 102.937 76.4397 102.582 76.7133C102.227 76.9811 102.049 77.3362 102.049 77.7786C102.049 78.1919 102.256 78.5383 102.669 78.8177C103.088 79.0971 103.702 79.3591 104.512 79.6036C106.002 80.0519 107.088 80.6078 107.769 81.2714C108.45 81.9351 108.79 82.7617 108.79 83.7514C108.79 84.8516 108.374 85.7161 107.542 86.3448C106.709 86.9677 105.589 87.2791 104.18 87.2791C103.202 87.2791 102.311 87.1016 101.508 86.7465C100.704 86.3855 100.09 85.8936 99.6653 85.2707C99.2462 84.6479 99.0366 83.926 99.0366 83.1052H101.665C101.665 84.5081 102.503 85.2096 104.18 85.2096C104.803 85.2096 105.289 85.0845 105.638 84.8341C105.987 84.578 106.162 84.2229 106.162 83.7688ZM116.064 86.144C115.441 86.9007 114.58 87.2791 113.48 87.2791C112.467 87.2791 111.692 86.9881 111.157 86.4059C110.627 85.8238 110.356 84.9709 110.345 83.8474V77.6563H112.868V83.7601C112.868 84.7439 113.317 85.2358 114.213 85.2358C115.069 85.2358 115.657 84.9389 115.977 84.3451V77.6563H118.509V87.1045H116.134L116.064 86.144ZM123.845 83.3148L122.936 84.2229V87.1045H120.413V73.692H122.936V81.123L123.425 80.4943L125.844 77.6563H128.874L125.46 81.5945L129.171 87.1045H126.272L123.845 83.3148ZM132.428 78.6867C133.098 77.8834 133.939 77.4817 134.952 77.4817C137.001 77.4817 138.04 78.6722 138.069 81.0531V87.1045H135.546V81.123C135.546 80.5816 135.429 80.1828 135.196 79.9267C134.963 79.6647 134.576 79.5337 134.035 79.5337C133.296 79.5337 132.76 79.819 132.428 80.3895V87.1045H129.905V73.692H132.428V78.6867ZM148.487 82.4677C148.487 83.9813 148.163 85.1631 147.517 86.013C146.871 86.8571 145.969 87.2791 144.81 87.2791C143.786 87.2791 142.968 86.8862 142.357 86.1003L142.243 87.1045H139.973V73.692H142.496V78.5034C143.078 77.8223 143.844 77.4817 144.793 77.4817C145.946 77.4817 146.848 77.9067 147.5 78.7566C148.158 79.6007 148.487 80.7912 148.487 82.328V82.4677ZM145.963 82.2844C145.963 81.3297 145.812 80.634 145.509 80.1974C145.206 79.755 144.755 79.5337 144.155 79.5337C143.352 79.5337 142.799 79.8627 142.496 80.5205V84.2491C142.805 84.9127 143.364 85.2446 144.173 85.2446C144.988 85.2446 145.523 84.8429 145.78 84.0395C145.902 83.6553 145.963 83.0703 145.963 82.2844ZM152.713 87.1045H150.181V77.6563H152.713V87.1045ZM150.032 75.2114C150.032 74.833 150.157 74.5215 150.408 74.277C150.664 74.0325 151.01 73.9103 151.447 73.9103C151.878 73.9103 152.221 74.0325 152.477 74.277C152.733 74.5215 152.861 74.833 152.861 75.2114C152.861 75.5956 152.73 75.9099 152.468 76.1544C152.212 76.3989 151.872 76.5212 151.447 76.5212C151.022 76.5212 150.678 76.3989 150.416 76.1544C150.16 75.9099 150.032 75.5956 150.032 75.2114ZM160.109 80.0227C159.766 79.9762 159.463 79.9529 159.201 79.9529C158.246 79.9529 157.62 80.276 157.323 80.9222V87.1045H154.8V77.6563H157.184L157.254 78.7828C157.76 77.9154 158.462 77.4817 159.358 77.4817C159.637 77.4817 159.899 77.5195 160.144 77.5952L160.109 80.0227ZM169.374 74.3905L172.64 83.6116L175.888 74.3905H179.328V87.1045H176.7V83.6291L176.962 77.6301L173.53 87.1045H171.731L168.308 77.6389L168.57 83.6291V87.1045H165.951V74.3905H169.374ZM186.925 87.1045C186.809 86.8775 186.724 86.5951 186.672 86.2575C186.061 86.9386 185.266 87.2791 184.288 87.2791C183.363 87.2791 182.594 87.0113 181.983 86.4758C181.378 85.9402 181.075 85.2649 181.075 84.4499C181.075 83.4486 181.444 82.6802 182.184 82.1447C182.929 81.6091 184.003 81.3384 185.406 81.3326H186.567V80.7912C186.567 80.3546 186.454 80.0053 186.227 79.7433C186.006 79.4814 185.653 79.3504 185.17 79.3504C184.745 79.3504 184.41 79.4522 184.166 79.656C183.927 79.8597 183.808 80.1392 183.808 80.4943H181.284C181.284 79.9471 181.453 79.4406 181.791 78.9749C182.128 78.5092 182.606 78.1453 183.223 77.8834C183.84 77.6156 184.533 77.4817 185.301 77.4817C186.465 77.4817 187.388 77.7757 188.069 78.3636C188.756 78.9458 189.1 79.7666 189.1 80.8261V84.9215C189.105 85.818 189.231 86.4962 189.475 86.956V87.1045H186.925ZM184.838 85.3493C185.211 85.3493 185.554 85.2678 185.869 85.1048C186.183 84.936 186.416 84.7119 186.567 84.4325V82.8083H185.624C184.361 82.8083 183.689 83.2449 183.607 84.1181L183.598 84.2666C183.598 84.5809 183.709 84.84 183.93 85.0437C184.151 85.2475 184.454 85.3493 184.838 85.3493ZM193.501 78.6867C194.17 77.8834 195.011 77.4817 196.024 77.4817C198.073 77.4817 199.112 78.6722 199.142 81.0531V87.1045H196.618V81.123C196.618 80.5816 196.502 80.1828 196.269 79.9267C196.036 79.6647 195.649 79.5337 195.107 79.5337C194.368 79.5337 193.832 79.819 193.501 80.3895V87.1045H190.977V73.692H193.501V78.6867ZM205.394 87.2791C204.008 87.2791 202.879 86.8542 202.006 86.0042C201.138 85.1543 200.705 84.0221 200.705 82.6075V82.363C200.705 81.4141 200.888 80.567 201.255 79.8219C201.621 79.0709 202.14 78.4946 202.809 78.093C203.484 77.6855 204.253 77.4817 205.114 77.4817C206.407 77.4817 207.423 77.8892 208.162 78.7042C208.907 79.5192 209.28 80.6747 209.28 82.1708V83.2012H203.263C203.345 83.8183 203.589 84.3131 203.997 84.6857C204.41 85.0583 204.931 85.2446 205.56 85.2446C206.532 85.2446 207.292 84.8924 207.839 84.188L209.079 85.5764C208.7 86.1119 208.188 86.5311 207.542 86.8338C206.896 87.1307 206.18 87.2791 205.394 87.2791ZM205.106 79.525C204.605 79.525 204.197 79.6938 203.883 80.0315C203.575 80.3691 203.377 80.8523 203.289 81.481H206.8V81.2802C206.788 80.7213 206.637 80.2905 206.346 79.9878C206.054 79.6793 205.641 79.525 205.106 79.525ZM214.126 83.5331L215.872 77.6563H218.579L214.781 88.5715L214.571 89.0692C214.007 90.3034 213.075 90.9204 211.777 90.9204C211.41 90.9204 211.038 90.8651 210.659 90.7545V88.8422L211.043 88.8509C211.521 88.8509 211.876 88.7781 212.109 88.6326C212.347 88.4871 212.534 88.2455 212.668 87.9078L212.964 87.1307L209.655 77.6563H212.371L214.126 83.5331Z" fill="white"/>
<path d="M108.341 200.158C108.341 200.775 108.187 201.322 107.878 201.799C107.57 202.277 107.145 202.658 106.604 202.943C107.221 203.24 107.71 203.651 108.071 204.175C108.431 204.693 108.612 205.304 108.612 206.008C108.612 207.138 108.228 208.031 107.459 208.689C106.691 209.341 105.646 209.667 104.324 209.667C103.003 209.667 101.955 209.338 101.181 208.68C100.407 208.023 100.019 207.132 100.019 206.008C100.019 205.304 100.2 204.69 100.561 204.166C100.922 203.642 101.408 203.234 102.019 202.943C101.478 202.658 101.053 202.277 100.744 201.799C100.442 201.322 100.29 200.775 100.29 200.158C100.29 199.075 100.651 198.213 101.373 197.573C102.095 196.927 103.076 196.604 104.316 196.604C105.55 196.604 106.528 196.924 107.25 197.564C107.977 198.199 108.341 199.063 108.341 200.158ZM106.08 205.825C106.08 205.272 105.919 204.829 105.599 204.498C105.279 204.166 104.848 204 104.307 204C103.771 204 103.344 204.166 103.023 204.498C102.703 204.824 102.543 205.266 102.543 205.825C102.543 206.366 102.7 206.803 103.015 207.135C103.329 207.467 103.766 207.632 104.324 207.632C104.872 207.632 105.3 207.472 105.608 207.152C105.922 206.832 106.08 206.39 106.08 205.825ZM105.818 200.28C105.818 199.785 105.687 199.389 105.425 199.092C105.163 198.79 104.793 198.638 104.316 198.638C103.844 198.638 103.477 198.784 103.215 199.075C102.953 199.366 102.823 199.768 102.823 200.28C102.823 200.787 102.953 201.194 103.215 201.503C103.477 201.811 103.847 201.965 104.324 201.965C104.802 201.965 105.169 201.811 105.425 201.503C105.687 201.194 105.818 200.787 105.818 200.28ZM116.453 209.492H113.93V199.765L110.917 200.699V198.647L116.183 196.761H116.453V209.492ZM129.307 209.492H120.592V207.763L124.705 203.38C125.27 202.763 125.686 202.224 125.954 201.765C126.227 201.305 126.364 200.868 126.364 200.455C126.364 199.89 126.222 199.448 125.936 199.127C125.651 198.801 125.244 198.638 124.714 198.638C124.143 198.638 123.692 198.836 123.36 199.232C123.034 199.622 122.871 200.137 122.871 200.778H120.339C120.339 200.004 120.522 199.296 120.889 198.656C121.262 198.016 121.786 197.515 122.461 197.154C123.136 196.787 123.902 196.604 124.758 196.604C126.067 196.604 127.083 196.918 127.805 197.547C128.533 198.176 128.897 199.063 128.897 200.21C128.897 200.839 128.734 201.479 128.408 202.131C128.082 202.783 127.523 203.543 126.731 204.41L123.841 207.458H129.307V209.492ZM138.327 204.707H139.768V206.742H138.327V209.492H135.804V206.742H130.591L130.477 205.153L135.777 196.778H138.327V204.707ZM132.992 204.707H135.804V200.219L135.638 200.507L132.992 204.707ZM147.697 201.092L144.955 200.315L145.47 198.734L148.186 199.826L148.011 196.778H149.723L149.548 199.887L152.194 198.813L152.709 200.411L149.915 201.188L151.749 203.511L150.36 204.498L148.771 201.948L147.199 204.41L145.811 203.467L147.697 201.092ZM155.8 201.092L153.058 200.315L153.574 198.734L156.289 199.826L156.115 196.778H157.826L157.651 199.887L160.297 198.813L160.812 200.411L158.018 201.188L159.852 203.511L158.464 204.498L156.874 201.948L155.303 204.41L153.914 203.467L155.8 201.092ZM163.904 201.092L161.162 200.315L161.677 198.734L164.393 199.826L164.218 196.778H165.929L165.755 199.887L168.401 198.813L168.916 200.411L166.122 201.188L167.955 203.511L166.567 204.498L164.978 201.948L163.406 204.41L162.018 203.467L163.904 201.092ZM172.007 201.092L169.265 200.315L169.78 198.734L172.496 199.826L172.321 196.778H174.033L173.858 199.887L176.504 198.813L177.019 200.411L174.225 201.188L176.059 203.511L174.67 204.498L173.081 201.948L171.509 204.41L170.121 203.467L172.007 201.092ZM184.564 201.092L181.822 200.315L182.337 198.734L185.053 199.826L184.878 196.778H186.59L186.415 199.887L189.061 198.813L189.576 200.411L186.782 201.188L188.616 203.511L187.227 204.498L185.638 201.948L184.066 204.41L182.678 203.467L184.564 201.092ZM192.667 201.092L189.925 200.315L190.441 198.734L193.156 199.826L192.982 196.778H194.693L194.518 199.887L197.164 198.813L197.679 200.411L194.885 201.188L196.719 203.511L195.331 204.498L193.741 201.948L192.169 204.41L190.781 203.467L192.667 201.092ZM200.771 201.092L198.029 200.315L198.544 198.734L201.26 199.826L201.085 196.778H202.796L202.622 199.887L205.268 198.813L205.783 200.411L202.989 201.188L204.822 203.511L203.434 204.498L201.845 201.948L200.273 204.41L198.884 203.467L200.771 201.092ZM208.874 201.092L206.132 200.315L206.647 198.734L209.363 199.826L209.188 196.778H210.9L210.725 199.887L213.371 198.813L213.886 200.411L211.092 201.188L212.926 203.511L211.537 204.498L209.948 201.948L208.376 204.41L206.988 203.467L208.874 201.092ZM228.032 209.492H219.318V207.763L223.43 203.38C223.995 202.763 224.411 202.224 224.679 201.765C224.953 201.305 225.09 200.868 225.09 200.455C225.09 199.89 224.947 199.448 224.662 199.127C224.376 198.801 223.969 198.638 223.439 198.638C222.869 198.638 222.418 198.836 222.086 199.232C221.76 199.622 221.597 200.137 221.597 200.778H219.064C219.064 200.004 219.248 199.296 219.615 198.656C219.987 198.016 220.511 197.515 221.186 197.154C221.862 196.787 222.627 196.604 223.483 196.604C224.793 196.604 225.809 196.918 226.53 197.547C227.258 198.176 227.622 199.063 227.622 200.21C227.622 200.839 227.459 201.479 227.133 202.131C226.807 202.783 226.248 203.543 225.456 204.41L222.566 207.458H228.032V209.492ZM238.144 204.236C238.144 205.994 237.78 207.339 237.053 208.27C236.325 209.201 235.26 209.667 233.857 209.667C232.471 209.667 231.412 209.21 230.678 208.296C229.945 207.382 229.569 206.072 229.552 204.367V202.026C229.552 200.251 229.918 198.903 230.652 197.984C231.391 197.064 232.454 196.604 233.839 196.604C235.225 196.604 236.284 197.061 237.018 197.975C237.751 198.883 238.127 200.19 238.144 201.895V204.236ZM235.62 201.668C235.62 200.615 235.475 199.849 235.184 199.372C234.899 198.889 234.45 198.647 233.839 198.647C233.245 198.647 232.806 198.877 232.521 199.337C232.241 199.791 232.093 200.504 232.075 201.476V204.568C232.075 205.604 232.215 206.375 232.494 206.882C232.78 207.382 233.234 207.632 233.857 207.632C234.474 207.632 234.919 207.391 235.193 206.908C235.466 206.425 235.609 205.685 235.62 204.69V201.668ZM248.57 209.492H239.856V207.763L243.968 203.38C244.533 202.763 244.949 202.224 245.217 201.765C245.491 201.305 245.627 200.868 245.627 200.455C245.627 199.89 245.485 199.448 245.2 199.127C244.914 198.801 244.507 198.638 243.977 198.638C243.407 198.638 242.955 198.836 242.624 199.232C242.298 199.622 242.135 200.137 242.135 200.778H239.602C239.602 200.004 239.786 199.296 240.152 198.656C240.525 198.016 241.049 197.515 241.724 197.154C242.4 196.787 243.165 196.604 244.021 196.604C245.331 196.604 246.346 196.918 247.068 197.547C247.796 198.176 248.16 199.063 248.16 200.21C248.16 200.839 247.997 201.479 247.671 202.131C247.345 202.783 246.786 203.543 245.994 204.41L243.104 207.458H248.57V209.492ZM256.254 209.492H253.731V199.765L250.718 200.699V198.647L255.984 196.761H256.254V209.492Z" fill="white"/>
<ellipse cx="358.855" cy="202.552" rx="13.2289" ry="13.0597" fill="white" fill-opacity="0.75"/>
<ellipse cx="340.713" cy="202.552" rx="13.2289" ry="13.0597" fill="white"/>
<defs>
<filter id="filter0_d_31_18" x="0.485962" y="0.742981" width="499.028" height="349.028" filterUnits="userSpaceOnUse" color-interpolation-filters="sRGB">
<feFlood flood-opacity="0" result="BackgroundImageFix"/>
<feColorMatrix in="SourceAlpha" type="matrix" values="0 0 0 0 0 0 0 0 0 0 0 0 0 0 0 0 0 0 127 0" result="hardAlpha"/>
<feOffset dy="37.257"/>
<feGaussianBlur stdDeviation="37.257"/>
<feComposite in2="hardAlpha" operator="out"/>
<feColorMatrix type="matrix" values="0 0 0 0 0.0862745 0 0 0 0 0.0980392 0 0 0 0 0.309804 0 0 0 0.2 0"/>
<feBlend mode="normal" in2="BackgroundImageFix" result="effect1_dropShadow_31_18"/>
<feBlend mode="normal" in="SourceGraphic" in2="effect1_dropShadow_31_18" result="shape"/>
</filter>
</defs>
</svg>
